<svg version="1" xmlns="http://www.w3.org/2000/svg" width="933.333" height="933.333" viewBox="0 0 700.000000 700.000000"><path d="M375.9.4c-.2.2-3.8.6-7.9 1-7.7.7-11.8 1.2-18 2.2-1.9.4-4.8.8-6.5 1.1-7.1 1.1-25.7 5.5-33 7.9-23.4 7.6-39.3 19-50.6 36.2-16.5 25.1-19.8 61-10 110.7 1.8 9.4 3.6 19 6 33 3.3 18.5 3.6 49 .7 62.3-4.5 20.8-15.8 44.3-29.4 60.7-.5.6-5.3 6.9-10.7 14-30.3 40.2-53.9 84-68.6 127.3-2.1 6.2-3.6 11.8-3.3 12.6.9 2.4 4.7 3.6 12.9 4.1 9.1.5 16.5 2.5 24.6 6.5 7.3 3.7 13.5 8.7 25.4 20.5 10.7 10.6 14 12.6 20 11.8 5.3-.6 12.3-4 13.6-6.5.6-1.1 1.2-7.6 1.4-14.3.2-6.8.5-13.1.8-14.1.3-1.1.8-3.7 1.2-5.9 2.3-15.4 12.6-40.6 28.3-69 2.1-3.9 5.6-10.2 7.7-14 2.1-3.9 4.1-7.5 4.5-8 1.2-1.6 4.6-12 7.9-23.8 1.7-5.9 3.2-11.1 3.5-11.6.3-.4.8-2.8 1.1-5.2.3-2.4 1-6.1 1.6-8.4.6-2.2 1.3-4.8 1.5-5.9.7-3.8 4.4-17.6 6-22.3 2.2-6.7 3.9-9.1 7.7-10.7 1.7-.7 4.2-2.3 5.4-3.5 1.2-1.1 3.4-2.3 5-2.6 1.5-.2 6.2-1.4 10.5-2.5 4.6-1.2 8.9-1.7 10.8-1.4 2.3.5 4.6-.1 9.3-2.5 3.4-1.7 13.7-5.1 22.9-7.6 9.2-2.4 19.6-5.6 23.2-7.1 3.7-1.4 7.2-2.4 8-2.1.7.3 1.6 2.5 1.9 4.9.3 2.3 3.1 12.4 6.2 22.3 4.7 15.1 7.3 24.6 10.1 36.7.2 1 .6 2.6.8 3.5 1.8 7.4 2.7 12.3 4.5 22.8 1.1 6.6 2.3 14.2 2.6 17 .4 2.7.8 5.7 1 6.5.2.8.7 4.6 1 8.5.3 3.8.8 8.3 1 10 .2 1.6.6 6.8 1 11.5s.8 10.1 1 12c.4 3.5 1.4 31.2 1.9 49.1.2 5.3.6 10.1 1 10.7 1.5 2.4 7.5 3.1 13.3 1.6 3.1-.8 6.3-2 7-2.6 1.1-.8 1.2-.7.7.7-.9 2.3-.2 1.8 8.6-4.8 9.2-7.1 14-9 21-8.5 12.5.9 23.2 9.8 36.7 30.5 4 6.2 7.3 11.4 7.3 11.7 0 .3 3.2 5.3 7.2 11.3 8 12.1 15.7 20.2 19.4 20.4 1.3.1 3.4.2 4.7.2 3.6.2 11.2-2.1 13.7-4.1 1.2-1 2.5-3.5 2.9-5.9.9-4.6.7-45.5-.3-54.8-.3-3.3-.8-8.9-1.1-12.5-3.1-34.8-11.3-73.9-23.1-109.8-7.4-22.4-11.9-30.2-35.4-61.7-10.6-14.2-23.8-33.5-26.3-38.3-6.9-13.2-9.2-18.4-12.1-27.4-1.9-5.7-3.8-13-4.2-16.3-.3-3.3-.8-6.3-1-6.6-1.7-3-2.2-41.8-.9-72.4 2.2-51.4 0-79.3-7.6-95.2-7.3-15.3-25.8-27.4-48-31.3-3.2-.6-7.1-1.3-8.6-1.6-3.1-.6-40.8-1.6-41.4-1zM396 17.9c3 .6 7.1 1.3 9 1.6 4.7.8 19.6 5.3 24 7.3 4.1 1.8 10.6 6.7 13.7 10.2 5.5 6.2 10.5 18.4 12.3 29.7.6 3.7 1.3 7.9 1.5 9.3.6 2.8.5 35 0 57.5-.2 8.2-.4 20.7-.5 27.7l-.2 12.8-11.7 11.7C432 197.9 426.4 205 425 210.1c-2.3 7.9 7.3 3.4 21.2-10l9.8-9.3.1 4.8c0 4.8.3 8.7 1.4 20.9 1.5 16.7 3.7 25.7 9 37.1 3.2 7.1 10.9 19.4 17.3 27.9l3.1 4.1-5.7 4.6c-9.2 7.5-19.6 18.1-23.2 23.6-3.3 5.1-4.9 5.4-5 1.1 0-.9-1.8-7.9-4-15.5l-3.9-13.9 2.7-2.4c10.6-9.2 16.2-15.3 16.2-17.6 0-.8-.9-1.5-1.9-1.5-2.9 0-15.3 6.6-17.9 9.6-1.5 1.7-2.3 2.1-2.7 1.2-2.5-7.7-8.8-23.6-10-25.4-3.2-4.9-8.8-4.3-41 4.4-13.3 3.6-18.1 4.5-18.3 3.5-.4-1.5 5.2-21.9 7.8-28.3 1-2.5 3.5-9 5.5-14.5 4.1-10.9 5.1-13.5 8.5-21 1.3-2.8 3.4-7.5 4.8-10.5 4-9 7.1-18.7 7.8-24.9.6-5.6.5-6-2-7.6-2.3-1.5-4.3-1.7-14.9-1.2-6.7.4-14.7 1.1-17.7 1.6s-7.1 1.2-9 1.5c-1.9.2-5.7.9-8.5 1.5-8.5 1.7-22.9 4.9-25.9 5.7-3.9.9-3.3.1 8.3-11.9 5.3-5.4 9.8-10.3 10-10.9.2-.6-5.1 4.5-11.7 11.4-11.2 11.5-12.6 12.5-18.1 14.2-7.9 2.4-16 7.3-18.8 11.5-2.2 3.3-2.2 3.3-.3 7l1.9 3.8-6.4 6.3-6.3 6.2-.7-3.3c-.4-1.9-3.1-13.5-6-25.9-5.5-23.5-9-41.9-10-53.1l-.6-6.6 3.9-2.6c2.1-1.5 20-19 39.9-39C346.7 33.6 354 25.3 354 21c0-2.9-8.2.7-17.7 7.9-6.1 4.5-56.8 54.8-63.2 62.6l-3.3 4 .7-6.9c3.9-41.1 32.7-64.9 86.5-71.5 8-1 32.6-.5 39 .8zm-15 146.7c0 .3-4 9.6-8.9 20.7s-11 25.8-13.6 32.7c-2.7 6.9-5.2 12.9-5.6 13.4-.9 1-15.3-28-22.2-44.5l-4.4-10.7 8.1-2.1c4.9-1.3 9.5-1.9 11.6-1.5 2.6.4 4.7-.1 8.2-2 2.6-1.4 6.4-2.7 8.5-3.1 2.2-.3 5-.8 6.3-1.1 12.5-2.6 12-2.5 12-1.8zm-76.2 31.9l4 9-5.5 5.5c-3 3-7.1 8.1-9 11.2-2 3.2-3.6 5.8-3.7 5.8-.1 0-.2-1.5-.2-3.3-.1-5.8-1.5-19.1-2.3-22.7-.8-3.3-.5-3.8 5.3-9.7 3.3-3.5 6.3-5.9 6.7-5.5.4.4 2.5 4.7 4.7 9.7zm22.1 45.4c2.4 4 7.2 11.1 10.7 15.7 3.5 4.6 6 8.5 5.6 8.7-.4.3-7 2.1-14.7 4.2-24.4 6.4-27.9 7.6-32 10.4-2.2 1.5-5.6 3.3-7.5 4.1-5.6 2.1-8.6 5.4-8.8 9.7-.8 15.1-3.7 29.5-9.2 46.3-7.1 21.5-4.9 18.7-44.5 58-19.7 19.5-38.4 38.4-41.6 42-5.2 5.6-5.9 6.1-5.9 4 0-7.8 7.7-26.4 20-48.5 11.4-20.5 37.5-59.9 55.9-84.5 18.7-24.9 25.3-35.8 30.1-50.3 1.5-4.5 2.8-6.7 3.9-6.7 2.9 0 11.6-6.9 21.1-16.8l9.5-9.9 1.6 3.1c.8 1.7 3.4 6.4 5.8 10.5zm188.8 80c4 5.3 8.9 12.8 10.9 16.8l3.7 7.2-18.3 17.8c-10.1 9.8-24.3 23.8-31.7 31-7.3 7.3-13.3 12.9-13.4 12.5 0-.4-.2-1.8-.4-3.2-.2-1.4-.6-6.1-.9-10.5-.7-9.2-1.7-18.4-3.1-27.5-.2-1.4-.9-5.9-1.4-10-1.3-9-2.1-13.1-2.7-14.1-.2-.4 2.4-2.3 5.9-4.2 6.5-3.6 14.4-10.3 28.7-24.8l8.5-8.6 3.5 4c1.9 2.2 6.7 8.3 10.7 13.6zm20.1 41.8c4 12.5 7.8 25.8 10.2 35.8.9 3.8.9 5-.1 5.4-1.3.4-16.4 12.4-19 15-3.7 3.8-26 23.6-26.7 23.6-5.5.4-19.6 4.7-26.4 8.2-2.7 1.3-4.8 2.2-4.8 2.1 0-.2-.3-6.8-.5-14.8-.3-8-.7-17.7-1-21.6l-.4-7.2 6.7-6.2c7.8-7.3 34.6-32.7 47.6-45.2 5-4.7 9.4-8.5 9.7-8.2.4.2 2.5 6.1 4.7 13.1zm12.9 46.5c0 .7.7 4.9 1.6 9.3 5.6 27 10.1 67.5 7.8 68.9-.6.4-1.1.1-1.1-.6 0-2-9.5-21.3-13-26.3-6.3-9.2-14.9-15.4-23.3-17-2-.4-3.7-.9-3.7-1.2 0-.2 3.2-3.6 7.1-7.5 7.9-8 20.2-21.7 22.1-24.8 1.5-2.3 2.5-2.6 2.5-.8zm-314.9 14.9c-2.2 5.2-4.7 10.7-5.4 12.4-2.4 6-8.3 25.2-9.4 31.2-.7 3.5-1.5 6.3-1.9 6.3-.4 0-3.3-2-6.6-4.4-3.2-2.5-8.3-5.7-11.2-7.2-2.9-1.4-5.3-2.9-5.3-3.3 0-.3 4.1-4.7 9-9.6 5-5 14.8-14.9 21.8-22.2 6.9-7.2 12.8-13.1 12.9-12.9.2.1-1.6 4.5-3.9 9.7z"/><path d="M379.9 86.2c-9.5 9.6-9.9 26.3-.7 33.1 3.5 2.6 11.3 2.7 15 .3 3.8-2.5 6.8-9.2 6.8-15.4 0-8.6-3-12.9-12.9-18.5l-4.9-2.7-3.3 3.2zM310.2 93.8c-5.2 4.5-7.7 10.7-7.7 18.7.1 11.5 4.5 16.8 14 16.9 9.1.1 14-6 14-17.5 0-8.1-2.3-11.6-11.3-17.1l-6-3.7-3 2.7zM350.5 132c-.3.6.1.7.9.4 1.8-.7 2.1-1.4.7-1.4-.6 0-1.3.4-1.6 1zM495.5 488.9c-10.4 2.5-28.1 19.4-37.9 36-7 12-13.5 30.3-15.1 42.8-.2 1.8-.7 4.8-1 6.5-1.4 8-1.9 36.9-1 53.8.5 10.4 1.5 25.1 2 30 .2 2.5.7 8.9 1 14.3.8 12.1 1.3 13.8 5.9 16.2 2 1.1 3.5 2.6 3.4 3.5-1 7.5 7.1 9.5 25.2 6.1 3-.6 6.6-1.2 8-1.5 18.7-3.1 51.2-16.6 70-28.9 16.2-10.7 20.8-14.5 34.5-28.2 15.2-15.1 22.6-24.8 32.1-41.6 8.1-14.5 7.3-18.6-4.3-21.2-7.5-1.7-10.9-2.3-19.8-3.3-3.3-.3-6.8-.8-7.9-1-1-.2-4.4-.6-7.5-1-8.4-.9-19.9-4.1-26.1-7.1-11.8-5.7-22.3-20.2-38.5-52.9-5.9-12-11.2-21.5-12.2-21.9-2.7-1.1-7.5-1.4-10.8-.6zm2.4 41.2c5.8 11.7 16 27.9 23.4 36.9l4.4 5.4-3.6 2.7c-5.3 3.9-43.7 42.9-47.6 48.3-1.8 2.5-3.8 6-4.5 7.6-.7 1.7-1.5 3-1.9 3-1 0-1.5-10-1.5-31.5-.1-23 .4-28.3 4-44.4 2.4-10.9 10.8-28.2 16.8-34.7 2.3-2.4 4.3-4.4 4.6-4.3.3 0 2.9 5 5.9 11zm58.6 57.8c12.2 2.6 26.8 4.4 36.8 4.5 4.1.1 5.6.4 5.2 1.3-.8 2.3-18 24.6-23.6 30.7-8.2 9-21.3 20.1-31.9 27.1-13.9 9.1-15.4 9.7-9.9 3.9 12.9-13.7 17.4-19.2 16.5-20.1-.3-.3-7.6 6.5-16.3 15.1-16.4 16.4-16.7 16.6-31.8 21.7-7.4 2.5-26.1 6.9-29.4 6.9-.5 0-1.1-2.3-1.3-5.1l-.3-5.1 4.2-2c3.8-1.8 9.3-6.8 19.9-18.3 8.2-8.9 16.1-17.4 23.3-25 15.6-16.3 28.1-31.6 28.1-34.2 0-1.6 2.4-3.3 4-2.9.8.2 3.8.9 6.5 1.5zM142 494c-5.7 1.9-7.9 4-8.1 7.4-.1 1.2-.2 10-.3 19.6-.2 15.7-.4 18-2.4 22.1-2.2 4.7-6.5 9.8-10.4 12.3-2.8 1.7-15.9 4.4-25.2 5.1-3.8.2-8.6 1-10.5 1.6-11.4 3.8-16.2 14.6-11.3 25.9 5.9 13.7 18.4 31.3 31.6 44.6 26.2 26.2 58.4 42.4 95.6 48.1 5.9.9 32.1 1 38.5.1 15.4-2.1 31.3-6.9 34.5-10.3l2.2-2.3-2.2-1.2-2.2-1.2 2.3-2.4 2.2-2.4-2.1-8c-4.7-17.4-15.2-41.6-26-59.5-2.6-4.4-5.4-9.1-6.2-10.4-.8-1.4-1.9-3-2.3-3.5-.4-.6-4-5.6-7.9-11.1-16.7-23.6-42.9-51.8-63.2-67.9-9.4-7.6-10.1-7.9-15.5-8.2-3.5-.2-7.6.4-11.1 1.6zm40 53.2c3.4 4 7.2 8.4 8.3 9.8 5.8 6.7 21.9 28.9 27.4 37.8 11.6 18.6 21.4 39.3 26.8 56.2 1.5 4.7 3.3 10.4 4 12.7.8 2.4 1 4.5.6 4.8-2.4 1.4-24.3 2.8-29.4 1.8-2.5-.5-2.3-.8 4.2-7.3 12.3-12.2 15.4-24 6.3-24-1.8 0-4.8.7-6.8 1.5-4.6 1.9-14 9.4-18.5 14.7-2 2.4-4.7 5.6-6 7.1l-2.4 2.8-6-2.6c-9.6-4.3-15.4-7.3-22.2-11.7-3.4-2.2-6.3-4.2-6.3-4.3 0-.1 8-8.3 17.9-18.2 9.8-9.9 18.4-19 19.1-20.4 1.5-2.9-3.3 1.6-24.1 22.5l-14.8 14.9-5.8-4.3c-10.8-8.2-11.5-5.7 6.2-23.1 15.1-14.9 22.8-24.4 24.2-29.7.3-1.5 0-3.8-.9-5.6-.9-1.7-2-4.2-2.5-5.6-1-2.4-1.7-1.7-20.4 17.1-10.7 10.7-21 21.6-22.9 24.2-1.9 2.5-3.8 4.7-4.1 4.7-.9 0-18.9-19-18.9-19.9 0-.4 1.6-1.6 3.6-2.7 4.1-2.2 48.4-47.4 52.6-53.7 1.5-2.3 2.8-4.8 2.8-5.5 0-2.4 1.8-1.1 8 6zm-29.9 18.2c-4 6.5-8.8 8-20.1 6.2l-5.5-.9 7-1.2c7.8-1.4 15.4-4.6 18.1-7.6 2.6-2.9 2.9-.5.5 3.5zm-39.7 6.7c-.6 1-8.9 2.9-12.3 2.9-3 0-4.5-2.4-2.1-3.2 1.9-.6 14.8-.3 14.4.3zM260.5 549.2c-6 1.2-11.5 3.9-11.5 5.6 0 .9 3.8 7.6 8.5 14.9 18.6 29 26.1 44.3 29.8 60.8 1.9 8.6 1.2 19.8-1.4 23.1-1.4 1.7.7 2.9 8.6 5.3 8.1 2.3 27.2 7 31.2 7.6 1.6.2 5.3.8 8.3 1.4 5.6 1 9.1 1.5 17 2.5 10.5 1.3 14.1 1.6 22.6 2.1 4.9.3 10.5 1.1 12.4 1.7 3.5 1.2 24.4 1.8 30 1 1.9-.3 3-1 3-2.1 0-.9 1.5-2.8 3.4-4.3 2.2-1.7 3.4-3.5 3.1-4.6-.3-1.6-1-7.3-2-15.7-.8-6.6-1.7-28-1.9-45.3-.2-14.5-.6-18.6-1.7-19.3-1.3-.9-5.9-.7-16.4.7-2.2.3-5.1.6-6.5.8-5.5.7-18.9-1.4-31.1-4.9-31.2-8.9-69.7-22.1-84.7-29.1-7.7-3.6-11.7-4.1-20.7-2.2zm54.8 36.3c5.9 2 13 4 15.7 4.6 2.8.6 5 1.4 5 1.8 0 .4-3 3.2-6.7 6.3-8.3 7-14.3 13.1-17.7 18.1l-2.5 3.9-.7-2.9c-1.7-6.9-12.5-33.4-16-39.5-.3-.4 2.4.4 5.8 1.8 3.5 1.3 11.2 4 17.1 5.9zm69.3 11.6l10.2-.1.1 18.3c.2 19.4.7 29.8 1.6 33.4.4 1.9-.3 2.6-5 4.8-3.1 1.5-6.8 3.7-8.3 5-2.5 2.1-3.6 2.3-9.8 2-29.3-1.7-50.8-6.8-56.8-13.4l-1.9-2.1 19-19.3c14.4-14.6 19.5-20.5 21.4-24.5l2.4-5.3 8.5.7c4.7.3 13.1.6 18.6.5z"/></svg>